<svg xmlns="http://www.w3.org/2000/svg" version="1.1" xmlns:xlink="http://www.w3.org/1999/xlink" xmlns:svgjs="http://svgjs.dev/svgjs" width="1000" height="1000" viewBox="0 0 1000 1000"><rect width="1000" height="1000" fill="#000000"></rect><g transform="matrix(0.7,0,0,0.7,149.57575757575756,282.1265587044535)"><svg viewBox="0 0 396 247" data-background-color="#213382" preserveAspectRatio="xMidYMid meet" height="623" width="1000" xmlns="http://www.w3.org/2000/svg" xmlns:xlink="http://www.w3.org/1999/xlink"><g id="tight-bounds" transform="matrix(1,0,0,1,0.2400000000000091,-0.09999999999999432)"><svg viewBox="0 0 395.52 247.2" height="247.2" width="395.52"><g><svg></svg></g><g><svg viewBox="0 0 395.52 247.2" height="247.2" width="395.52"><g transform="matrix(1,0,0,1,75.54432,82.47413622167822)"><svg viewBox="0 0 244.43135999999998 82.25172755664354" height="82.25172755664354" width="244.43135999999998"><g><svg viewBox="0 0 244.43135999999998 82.25172755664354" height="82.25172755664354" width="244.43135999999998"><g><svg viewBox="0 0 336.65808720403606 113.28623818337844" height="82.25172755664354" width="244.43135999999998"><g transform="matrix(1,0,0,1,92.22672720403608,0)"><svg viewBox="0 0 244.43135999999998 113.28623818337844" height="113.28623818337844" width="244.43135999999998"><g id="textblocktransform"><svg viewBox="0 0 244.43135999999998 113.28623818337844" height="113.28623818337844" width="244.43135999999998" id="textblock"><g><svg viewBox="0 0 244.43135999999998 70.72907438297872" height="70.72907438297872" width="244.43135999999998"><g transform="matrix(1,0,0,1,0,0)"><svg width="244.43135999999998" viewBox="2.8 -33.5 117.5 34" height="70.72907438297872" data-palette-color="#ffffff"><path d="M14.1 0L2.8 0 2.8-0.8 6.8-2.8 7.85-30.2 3.55-32.2 3.55-33 13.5-33 24.7-7.15 35.85-33 45.4-33 45.4-32.2 41.15-30.35 42-2.8 45.6-0.8 45.6 0 33.25 0 33.25-0.8 37-2.75 36.5-27.2 24.7 0.25 22.3 0.25 10.6-26.9 9.95-2.75 14.1-0.8 14.1 0ZM59.45 0.5L59.45 0.5Q55 0.5 52.3-1.83 49.6-4.15 49.6-8.1L49.6-8.1Q49.6-10.55 51.25-12.93 52.9-15.3 56.6-17.6L56.6-17.6Q54.9-19.4 54-20.68 53.1-21.95 52.77-23.05 52.45-24.15 52.45-25.55L52.45-25.55Q52.45-27.5 53.65-29.33 54.85-31.15 56.97-32.33 59.1-33.5 61.85-33.5L61.85-33.5Q65.85-33.5 68.12-31.68 70.4-29.85 70.4-27L70.4-27Q70.4-24.75 68.32-22.95 66.25-21.15 62.3-19.05L62.3-19.05Q62.65-18.65 63.1-18.2 63.55-17.75 64-17.3L64-17.3 71.9-9.4Q73.25-11.5 74.45-14.18 75.65-16.85 76.75-20.1L76.75-20.1 71.85-22.05 71.85-22.85 83.85-22.85 83.85-22.05 79.55-20.2Q78-16.7 76.45-13.63 74.9-10.55 73.2-8.1L73.2-8.1 78.7-2.6 82.85-0.8 82.85 0 74.05 0 69.95-4.1Q67.8-1.9 65.22-0.7 62.65 0.5 59.45 0.5ZM57.35-26.8L57.35-26.8Q57.35-25.1 58.25-23.68 59.15-22.25 61.05-20.25L61.05-20.25Q63.2-21.85 64.37-23.38 65.55-24.9 65.55-26.95L65.55-26.95Q65.55-28.85 64.42-30.05 63.3-31.25 61.45-31.25L61.45-31.25Q59.7-31.25 58.52-30.05 57.35-28.85 57.35-26.8ZM54.7-9.5L54.7-9.5Q54.7-6.3 56.7-4.55 58.7-2.8 61.55-2.8L61.55-2.8Q65.4-2.8 68.55-5.5L68.55-5.5 61.05-13.05Q60.1-13.95 59.3-14.78 58.5-15.6 57.8-16.3L57.8-16.3Q55.75-14.55 55.22-13.1 54.7-11.65 54.7-9.5ZM96.3 0L85.5 0 85.5-0.8 88.65-2.45 101.5-33.25 104.25-33.25 116.95-2.6 120.3-0.8 120.3 0 107.09 0 107.09-0.8 111.5-2.55 107.8-11.55 95.75-11.55 92.09-2.5 96.3-0.8 96.3 0ZM101.8-26.35L96.9-14.3 106.7-14.3 101.8-26.35Z" opacity="1" transform="matrix(1,0,0,1,0,0)" fill="#ffffff" class="wordmark-text-0" data-fill-palette-color="primary" id="text-0"></path></svg></g></svg></g><g transform="matrix(1,0,0,1,0,87.42651134701481)"><svg viewBox="0 0 244.43135999999998 25.85972683636363" height="25.85972683636363" width="244.43135999999998"><g transform="matrix(1,0,0,1,0,0)"><svg width="244.43135999999998" viewBox="0.2 -36.9 439.93 46.55" height="25.85972683636363" data-palette-color="#fffdfd"><path d="M3.05 0.1L3.05 0.1Q2.65 0.1 1.83 0.05 1 0 0.2-0.1L0.2-0.1 8.95-34.3Q9.1-35.15 10.7-35.15L10.7-35.15Q11.3-35.15 11.88-35.1 12.45-35.05 12.85-34.95L12.85-34.95 21.6-0.8Q21.7-0.35 21.33-0.13 20.95 0.1 19.6 0.1L19.6 0.1Q19.15 0.1 18.48 0.08 17.8 0.05 16.9 0L16.9 0 12.55-19Q12.25-20.6 11.9-22.3 11.55-24 11.33-25.65 11.1-27.3 10.95-28.6L10.95-28.6Q10.85-27.3 10.58-25.65 10.3-24 10-22.3 9.7-20.6 9.35-19L9.35-19 5.2-0.8Q5.1-0.35 4.78-0.13 4.45 0.1 3.05 0.1ZM17.25-8.55L5.5-8.55 5.5-12.7 17.25-12.7 17.25-8.55ZM23.95 0L23.95 0 23.95-34.7Q23.95-35.75 24.3-36.18 24.65-36.6 25.65-36.68 26.65-36.75 28.5-36.75L28.5-36.75 28.5-0.9Q28.5-0.45 28.3-0.28 28.1-0.1 27.15-0.05 26.2 0 23.95 0ZM32.7 0L32.7 0 32.7-34.7Q32.7-35.75 33.05-36.18 33.39-36.6 34.39-36.68 35.39-36.75 37.24-36.75L37.24-36.75 37.24-0.9Q37.24-0.45 37.05-0.28 36.84-0.1 35.89-0.05 34.95 0 32.7 0ZM55.89 0.5L55.89 0.5Q53.74 0.5 52.69-0.38 51.64-1.25 51.32-2.93 50.99-4.6 50.99-6.8L50.99-6.8 50.99-21.1 47.69-21.1Q47.69-22.85 47.74-23.68 47.79-24.5 48.02-24.75 48.24-25 48.69-25L48.69-25 50.99-25 50.99-32.5Q50.99-33.25 51.37-33.55 51.74-33.85 52.72-33.93 53.69-34 55.54-34L55.54-34 55.54-25 60.34-25Q60.34-23.25 60.29-22.43 60.24-21.6 60.07-21.35 59.89-21.1 59.44-21.1L59.44-21.1 55.54-21.1 55.54-6.85Q55.54-5.95 55.62-5.15 55.69-4.35 56.02-3.88 56.34-3.4 57.14-3.4L57.14-3.4Q57.99-3.4 58.62-3.58 59.24-3.75 59.99-4.1L59.99-4.1Q60.09-3.7 60.19-3.15 60.29-2.6 60.29-1.9L60.29-1.9Q60.29-0.9 59.59-0.38 58.89 0.15 57.89 0.33 56.89 0.5 55.89 0.5ZM63.44 0L63.44 0 63.44-34.7Q63.44-35.75 63.79-36.18 64.14-36.6 65.14-36.68 66.14-36.75 67.99-36.75L67.99-36.75 67.99-23.6Q69.04-24.55 70.49-25.03 71.94-25.5 73.34-25.5L73.34-25.5Q75.44-25.5 76.49-24.75 77.54-24 77.94-22.55 78.34-21.1 78.34-18.95L78.34-18.95 78.34-0.9Q78.34-0.45 78.06-0.28 77.79-0.1 76.81-0.05 75.84 0 73.59 0L73.59 0 73.59-17.6Q73.59-19.1 73.19-20.2 72.79-21.3 71.14-21.3L71.14-21.3Q70.44-21.3 69.61-21.05 68.79-20.8 67.99-20.15L67.99-20.15 67.99-0.9Q67.99-0.45 67.81-0.28 67.64-0.1 66.66-0.05 65.69 0 63.44 0ZM89.84 0.5L89.84 0.5Q88.09 0.5 86.64 0 85.19-0.5 84.14-1.75 83.09-3 82.49-5.3 81.89-7.6 81.89-11.25L81.89-11.25Q81.89-15.9 82.64-18.73 83.39-21.55 84.64-23 85.89-24.45 87.49-24.98 89.09-25.5 90.74-25.5L90.74-25.5Q93.84-25.5 95.49-23.53 97.14-21.55 97.14-17.45L97.14-17.45Q97.14-15.7 96.99-13.9 96.84-12.1 96.49-10.75L96.49-10.75Q94.84-10.4 92.81-10.23 90.79-10.05 88.91-10 87.04-9.95 85.84-9.95 84.64-9.95 84.64-9.95L84.64-9.95 84.74-13.65Q84.74-13.65 85.59-13.63 86.44-13.6 87.74-13.6 89.04-13.6 90.31-13.73 91.59-13.85 92.44-14.1L92.44-14.1Q92.59-14.75 92.64-15.53 92.69-16.3 92.69-17L92.69-17Q92.64-19.6 92.11-20.55 91.59-21.5 90.19-21.5L90.19-21.5Q89.39-21.5 88.74-21 88.09-20.5 87.61-19.35 87.14-18.2 86.89-16.28 86.64-14.35 86.64-11.45L86.64-11.45Q86.64-9.3 86.86-7.85 87.09-6.4 87.56-5.55 88.04-4.7 88.86-4.33 89.69-3.95 90.84-3.95L90.84-3.95Q92.29-3.95 93.71-4.35 95.14-4.75 96.39-5.45L96.39-5.45Q96.64-4.8 96.71-3.93 96.79-3.05 96.79-2.35L96.79-2.35Q96.79-1.5 95.84-0.85 94.89-0.2 93.31 0.15 91.74 0.5 89.84 0.5ZM108.03 0L108.03 0 108.03-22.95Q108.03-24 108.41-24.43 108.78-24.85 109.78-24.93 110.78-25 112.68-25L112.68-25 112.68-0.9Q112.68-0.45 112.48-0.28 112.28-0.1 111.31-0.05 110.33 0 108.03 0ZM110.23-28.05L110.23-28.05Q109.13-28.05 108.53-28.8 107.93-29.55 107.98-31.5L107.98-31.5Q107.98-33 108.61-33.9 109.23-34.8 110.53-34.8L110.53-34.8Q111.83-34.8 112.31-34.1 112.78-33.4 112.78-31.65L112.78-31.65Q112.73-29.95 112.11-29 111.48-28.05 110.23-28.05ZM117.58 0L117.58 0 117.58-23.8Q118.53-24.25 119.85-24.63 121.18-25 122.65-25.25 124.13-25.5 125.43-25.5L125.43-25.5Q128.08-25.5 129.6-24.88 131.13-24.25 131.83-22.8 132.53-21.35 132.53-18.9L132.53-18.9 132.53-0.9Q132.53-0.45 132.3-0.28 132.08-0.1 131.1-0.05 130.13 0 127.83 0L127.83 0 127.83-17.5Q127.83-19.75 127.35-20.65 126.88-21.55 125.28-21.55L125.28-21.55Q124.58-21.55 123.7-21.35 122.83-21.15 122.13-20.75L122.13-20.75 122.13-0.9Q122.13-0.45 121.93-0.28 121.73-0.1 120.78-0.05 119.83 0 117.58 0ZM141.83 0L138.18 0 138.18-21.15 134.88-21.15Q134.88-22.95 134.9-23.78 134.93-24.6 135.2-24.8 135.47-25 136.03-25L136.03-25 138.18-25 138.18-27.95Q138.18-30.85 138.93-32.65 139.68-34.45 140.93-35.35 142.18-36.25 143.7-36.58 145.22-36.9 146.68-36.9L146.68-36.9Q148.97-36.9 150.2-36.33 151.43-35.75 151.43-34.7L151.43-34.7Q151.43-34.15 151.3-33.45 151.18-32.75 150.93-32.2L150.93-32.2Q149.97-32.6 149.1-32.7 148.22-32.8 147.43-32.8L147.43-32.8Q146.47-32.8 145.63-32.65 144.78-32.5 144.13-32.02 143.47-31.55 143.1-30.68 142.72-29.8 142.72-28.4L142.72-28.4 142.72-25 146.93-25Q146.93-23.25 146.85-22.43 146.78-21.6 146.6-21.38 146.43-21.15 145.97-21.15L145.97-21.15 142.72-21.15 142.72-0.9Q142.72-0.8 142.6-0.4 142.47 0 141.83 0L141.83 0ZM155.32 0.5L155.32 0.5Q153.37 0.5 151.9 0.03 150.42-0.45 149.42-1.8 148.42-3.15 147.95-5.73 147.47-8.3 147.47-12.5L147.47-12.5Q147.47-19.35 149.67-22.43 151.87-25.5 155.77-25.5L155.77-25.5Q158.42-25.5 160.15-24.43 161.87-23.35 162.7-20.55 163.52-17.75 163.52-12.65L163.52-12.65Q163.52-5.6 161.45-2.55 159.37 0.5 155.32 0.5ZM155.47-3.35L155.47-3.35Q156.37-3.35 157.05-4.05 157.72-4.75 158.15-6.75 158.57-8.75 158.57-12.6L158.57-12.6Q158.57-16.45 158.27-18.4 157.97-20.35 157.32-21 156.67-21.65 155.62-21.65L155.62-21.65Q154.67-21.65 153.95-20.95 153.22-20.25 152.82-18.25 152.42-16.25 152.42-12.45L152.42-12.45Q152.42-9.45 152.62-7.6 152.82-5.75 153.2-4.85 153.57-3.95 154.15-3.65 154.72-3.35 155.47-3.35ZM176.32 9.65L176.32 9.65Q173.87 9.65 172.94 9.05 172.02 8.45 172.02 7.5L172.02 7.5Q172.02 6.9 172.19 6.18 172.37 5.45 172.67 5L172.67 5Q173.17 5.3 174.07 5.53 174.97 5.75 175.92 5.75L175.92 5.75Q177.02 5.75 177.87 4.7 178.72 3.65 179.17 0.8L179.17 0.8 173.37-23.75Q173.22-24.4 173.34-24.65 173.47-24.9 174.47-24.95 175.47-25 177.82-25L177.82-25 180.12-14.15Q180.42-12.6 180.64-11 180.87-9.4 181.04-8 181.22-6.6 181.32-5.75 181.42-4.9 181.42-4.9L181.42-4.9Q181.42-4.9 181.49-5.75 181.57-6.6 181.74-7.98 181.92-9.35 182.14-10.98 182.37-12.6 182.57-14.2L182.57-14.2 184.37-23.7Q184.47-24.35 184.72-24.6 184.97-24.85 185.97-24.93 186.97-25 189.27-25L189.27-25 183.32 1.3Q182.57 4.45 181.67 6.3 180.77 8.15 179.49 8.9 178.22 9.65 176.32 9.65ZM198.22 0.5L198.22 0.5Q196.27 0.5 194.79 0.03 193.31-0.45 192.31-1.8 191.31-3.15 190.84-5.73 190.37-8.3 190.37-12.5L190.37-12.5Q190.37-19.35 192.56-22.43 194.77-25.5 198.67-25.5L198.67-25.5Q201.31-25.5 203.04-24.43 204.77-23.35 205.59-20.55 206.42-17.75 206.42-12.65L206.42-12.65Q206.42-5.6 204.34-2.55 202.27 0.5 198.22 0.5ZM198.37-3.35L198.37-3.35Q199.27-3.35 199.94-4.05 200.62-4.75 201.04-6.75 201.47-8.75 201.47-12.6L201.47-12.6Q201.47-16.45 201.17-18.4 200.87-20.35 200.22-21 199.56-21.65 198.52-21.65L198.52-21.65Q197.56-21.65 196.84-20.95 196.12-20.25 195.72-18.25 195.31-16.25 195.31-12.45L195.31-12.45Q195.31-9.45 195.52-7.6 195.72-5.75 196.09-4.85 196.47-3.95 197.04-3.65 197.62-3.35 198.37-3.35ZM217.11 0.5L217.11 0.5Q214.16 0.5 212.54-0.4 210.91-1.3 210.26-3.08 209.61-4.85 209.61-7.55L209.61-7.55 209.61-24.1Q209.61-24.55 209.81-24.73 210.01-24.9 211.01-24.95 212.01-25 214.36-25L214.36-25 214.36-7.2Q214.36-5.85 214.59-5.03 214.81-4.2 215.41-3.83 216.01-3.45 217.16-3.45L217.16-3.45Q217.76-3.45 218.56-3.63 219.36-3.8 220.01-4.3L220.01-4.3 220.01-24.1Q220.01-24.55 220.21-24.73 220.41-24.9 221.36-24.95 222.31-25 224.56-25L224.56-25 224.56-1.35Q223.21-0.6 221.21-0.05 219.21 0.5 217.11 0.5ZM252.16 0.3L252.16 0.3Q251.51 0.3 250.78-0.3 250.06-0.9 249.81-2.3L249.81-2.3 249.16-5.65Q248.86-7.35 248.58-9.33 248.31-11.3 248.11-13.25 247.91-15.2 247.78-16.8 247.66-18.4 247.58-19.35 247.51-20.3 247.51-20.3L247.51-20.3 246.86-22.75Q246.81-23.2 247.08-23.8 247.36-24.4 247.81-24.4L247.81-24.4 250.06-24.4 251.96-13.65Q252.21-12.45 252.41-10.98 252.61-9.5 252.78-8.18 252.96-6.85 253.06-6 253.16-5.15 253.16-5.15L253.16-5.15 253.46-5.15Q253.61-6.75 253.78-8.85 253.96-10.95 254.23-13.15 254.51-15.35 254.81-17.25L254.81-17.25 255.91-24.05Q256.01-24.5 256.23-24.7 256.46-24.9 257.38-24.95 258.31-25 260.36-25L260.36-25Q260.36-25 260.08-23.65 259.81-22.3 259.36-20.05 258.91-17.8 258.38-15.13 257.86-12.45 257.31-9.78 256.76-7.1 256.28-4.85 255.81-2.6 255.48-1.25 255.16 0.1 255.11 0.1L255.11 0.1Q255.11 0.1 254.38 0.2 253.66 0.3 252.16 0.3ZM241.36 0.3L241.36 0.3Q240.61 0.3 240.16-0.43 239.71-1.15 239.46-2.15L239.46-2.15Q239.11-3.7 238.63-5.88 238.16-8.05 237.63-10.53 237.11-13 236.58-15.4 236.06-17.8 235.66-19.75 235.26-21.7 235.01-22.9 234.76-24.1 234.76-24.1L234.76-24.1Q234.71-24.55 234.98-24.73 235.26-24.9 236.33-24.95 237.41-25 239.81-25L239.81-25 241.11-17.25Q241.46-15.25 241.73-13.13 242.01-11 242.21-9.2 242.41-7.4 242.53-6.28 242.66-5.15 242.66-5.15L242.66-5.15 242.96-5.15Q243.06-6 243.21-7.45 243.36-8.9 243.61-10.58 243.86-12.25 244.06-13.7L244.06-13.7 245.56-23.4Q245.66-24 245.91-24.2 246.16-24.4 247.06-24.4L247.06-24.4 248.26-24.4Q248.86-24.4 248.76-24.1 248.66-23.8 248.41-23.43 248.16-23.05 248.11-22.75L248.11-22.75 248.01-20.4Q248.01-20.4 247.93-19.43 247.86-18.45 247.73-16.82 247.61-15.2 247.38-13.25 247.16-11.3 246.91-9.33 246.66-7.35 246.31-5.6L246.31-5.6 245.26 0.1Q245.26 0.1 244.61 0.15 243.96 0.2 243.03 0.25 242.11 0.3 241.36 0.3ZM268.91 0.5L268.91 0.5Q267.51 0.5 266.23 0.28 264.96 0.05 263.93-0.73 262.91-1.5 262.33-3.05 261.76-4.6 261.76-7.15L261.76-7.15Q261.76-9.75 262.28-11.38 262.81-13 263.73-13.88 264.66-14.75 265.78-15.08 266.91-15.4 268.11-15.4L268.11-15.4Q268.86-15.4 269.88-15.25 270.91-15.1 271.61-14.7L271.61-14.7Q271.61-14.7 271.61-15.35 271.61-16 271.61-16.9 271.61-17.8 271.61-18.5L271.61-18.5Q271.61-19.5 271.31-20.05 271.01-20.6 270.41-20.85 269.81-21.1 268.86-21.1L268.86-21.1Q267.11-21.1 265.36-20.78 263.61-20.45 262.46-20L262.46-20Q262.06-20.7 261.93-21.4 261.81-22.1 261.81-22.6L261.81-22.6Q261.81-23 261.96-23.45 262.11-23.9 262.41-24.1L262.41-24.1Q263.01-24.5 265.06-25 267.11-25.5 270.01-25.5L270.01-25.5Q273.31-25.5 274.76-24.15 276.21-22.8 276.21-19.4L276.21-19.4 276.21-16.85Q276.21-14 276.18-11.08 276.16-8.15 276.11-5.6 276.06-3.05 275.96-1.15L275.96-1.15Q274.86-0.5 273.06 0 271.26 0.5 268.91 0.5ZM269.26-3.3L269.26-3.3Q269.96-3.3 270.58-3.53 271.21-3.75 271.46-4L271.46-4Q271.56-4.75 271.58-6.05 271.61-7.35 271.61-8.83 271.61-10.3 271.61-11.55L271.61-11.55Q271.21-11.8 270.63-11.9 270.06-12 269.61-12L269.61-12Q269.01-12 268.43-11.83 267.86-11.65 267.43-11.13 267.01-10.6 266.78-9.7 266.56-8.8 266.56-7.3L266.56-7.3Q266.56-6.1 266.73-5.33 266.91-4.55 267.26-4.1 267.61-3.65 268.13-3.48 268.66-3.3 269.26-3.3ZM279.95 0L279.95 0 279.95-23.8Q280.9-24.25 282.23-24.63 283.55-25 285.03-25.25 286.5-25.5 287.8-25.5L287.8-25.5Q290.45-25.5 291.98-24.88 293.5-24.25 294.2-22.8 294.9-21.35 294.9-18.9L294.9-18.9 294.9-0.9Q294.9-0.45 294.68-0.28 294.45-0.1 293.48-0.05 292.5 0 290.2 0L290.2 0 290.2-17.5Q290.2-19.75 289.73-20.65 289.25-21.55 287.65-21.55L287.65-21.55Q286.95-21.55 286.08-21.35 285.2-21.15 284.5-20.75L284.5-20.75 284.5-0.9Q284.5-0.45 284.3-0.28 284.1-0.1 283.15-0.05 282.2 0 279.95 0ZM305.6 0.5L305.6 0.5Q303.45 0.5 302.4-0.38 301.35-1.25 301.03-2.93 300.7-4.6 300.7-6.8L300.7-6.8 300.7-21.1 297.4-21.1Q297.4-22.85 297.45-23.68 297.5-24.5 297.73-24.75 297.95-25 298.4-25L298.4-25 300.7-25 300.7-32.5Q300.7-33.25 301.08-33.55 301.45-33.85 302.43-33.93 303.4-34 305.25-34L305.25-34 305.25-25 310.05-25Q310.05-23.25 310-22.43 309.95-21.6 309.78-21.35 309.6-21.1 309.15-21.1L309.15-21.1 305.25-21.1 305.25-6.85Q305.25-5.95 305.33-5.15 305.4-4.35 305.73-3.88 306.05-3.4 306.85-3.4L306.85-3.4Q307.7-3.4 308.33-3.58 308.95-3.75 309.7-4.1L309.7-4.1Q309.8-3.7 309.9-3.15 310-2.6 310-1.9L310-1.9Q310-0.9 309.3-0.38 308.6 0.15 307.6 0.33 306.6 0.5 305.6 0.5ZM327.65 0.5L327.65 0.5Q325.5 0.5 324.45-0.38 323.4-1.25 323.07-2.93 322.75-4.6 322.75-6.8L322.75-6.8 322.75-21.1 319.45-21.1Q319.45-22.85 319.5-23.68 319.55-24.5 319.77-24.75 320-25 320.45-25L320.45-25 322.75-25 322.75-32.5Q322.75-33.25 323.12-33.55 323.5-33.85 324.47-33.93 325.45-34 327.3-34L327.3-34 327.3-25 332.1-25Q332.1-23.25 332.05-22.43 332-21.6 331.82-21.35 331.65-21.1 331.2-21.1L331.2-21.1 327.3-21.1 327.3-6.85Q327.3-5.95 327.37-5.15 327.45-4.35 327.77-3.88 328.1-3.4 328.9-3.4L328.9-3.4Q329.75-3.4 330.37-3.58 331-3.75 331.75-4.1L331.75-4.1Q331.85-3.7 331.95-3.15 332.05-2.6 332.05-1.9L332.05-1.9Q332.05-0.9 331.35-0.38 330.65 0.15 329.65 0.33 328.65 0.5 327.65 0.5ZM341.34 0.5L341.34 0.5Q339.39 0.5 337.92 0.03 336.44-0.45 335.44-1.8 334.44-3.15 333.97-5.73 333.49-8.3 333.49-12.5L333.49-12.5Q333.49-19.35 335.69-22.43 337.89-25.5 341.79-25.5L341.79-25.5Q344.44-25.5 346.17-24.43 347.89-23.35 348.72-20.55 349.54-17.75 349.54-12.65L349.54-12.65Q349.54-5.6 347.47-2.55 345.39 0.5 341.34 0.5ZM341.49-3.35L341.49-3.35Q342.39-3.35 343.07-4.05 343.74-4.75 344.17-6.75 344.59-8.75 344.59-12.6L344.59-12.6Q344.59-16.45 344.29-18.4 343.99-20.35 343.34-21 342.69-21.65 341.64-21.65L341.64-21.65Q340.69-21.65 339.97-20.95 339.24-20.25 338.84-18.25 338.44-16.25 338.44-12.45L338.44-12.45Q338.44-9.45 338.64-7.6 338.84-5.75 339.22-4.85 339.59-3.95 340.17-3.65 340.74-3.35 341.49-3.35ZM360.49 0L360.49 0 360.49-34.7Q360.49-35.75 360.84-36.18 361.19-36.6 362.19-36.68 363.19-36.75 365.09-36.75L365.09-36.75 365.09-23.5Q366.24-24.4 367.84-24.95 369.44-25.5 370.99-25.5L370.99-25.5Q372.69-25.5 373.61-24.88 374.54-24.25 374.89-23.28 375.24-22.3 375.24-21.2L375.24-21.2Q375.24-19.7 374.84-18.45 374.44-17.2 373.84-16.25 373.24-15.3 372.61-14.63 371.99-13.95 371.49-13.55L371.49-13.55Q372.74-12.85 373.69-11.63 374.64-10.4 375.26-8.68 375.89-6.95 375.99-4.75L375.99-4.75Q376.04-3.85 376.04-2.85 376.04-1.85 375.89-0.8L375.89-0.8Q375.84-0.4 375.61-0.23 375.39-0.05 374.31-0.03 373.24 0 370.69 0L370.69 0Q370.89-1.65 370.89-3.1 370.89-4.55 370.74-5.8L370.74-5.8Q370.59-7.25 370.24-8.33 369.89-9.4 369.41-10.13 368.94-10.85 368.34-11.13 367.74-11.4 366.99-11.2L366.99-11.2Q366.59-11.15 366.14-10.93 365.69-10.7 365.39-10.53 365.09-10.35 365.09-10.35L365.09-10.35 365.09-0.9Q365.09-0.45 364.91-0.28 364.74-0.1 363.76-0.05 362.79 0 360.49 0ZM365.09-19.35L365.09-13.55Q366.59-14.2 367.74-15.05 368.89-15.9 369.51-17.03 370.14-18.15 370.14-19.6L370.14-19.6Q370.14-21.4 368.59-21.4L368.59-21.4Q367.69-21.4 366.79-20.88 365.89-20.35 365.09-19.35L365.09-19.35ZM378.99 0L378.99 0 378.99-23.8Q379.94-24.25 381.26-24.63 382.59-25 384.06-25.25 385.54-25.5 386.84-25.5L386.84-25.5Q389.49-25.5 391.01-24.88 392.54-24.25 393.24-22.8 393.94-21.35 393.94-18.9L393.94-18.9 393.94-0.9Q393.94-0.45 393.71-0.28 393.49-0.1 392.51-0.05 391.54 0 389.24 0L389.24 0 389.24-17.5Q389.24-19.75 388.76-20.65 388.29-21.55 386.69-21.55L386.69-21.55Q385.99-21.55 385.11-21.35 384.24-21.15 383.54-20.75L383.54-20.75 383.54-0.9Q383.54-0.45 383.34-0.28 383.14-0.1 382.19-0.05 381.24 0 378.99 0ZM405.28 0.5L405.28 0.5Q403.33 0.5 401.86 0.03 400.38-0.45 399.38-1.8 398.38-3.15 397.91-5.73 397.43-8.3 397.43-12.5L397.43-12.5Q397.43-19.35 399.63-22.43 401.83-25.5 405.73-25.5L405.73-25.5Q408.38-25.5 410.11-24.43 411.83-23.35 412.66-20.55 413.48-17.75 413.48-12.65L413.48-12.65Q413.48-5.6 411.41-2.55 409.33 0.5 405.28 0.5ZM405.43-3.35L405.43-3.35Q406.33-3.35 407.01-4.05 407.68-4.75 408.11-6.75 408.53-8.75 408.53-12.6L408.53-12.6Q408.53-16.45 408.23-18.4 407.93-20.35 407.28-21 406.63-21.65 405.58-21.65L405.58-21.65Q404.63-21.65 403.91-20.95 403.18-20.25 402.78-18.25 402.38-16.25 402.38-12.45L402.38-12.45Q402.38-9.45 402.58-7.6 402.78-5.75 403.16-4.85 403.53-3.95 404.11-3.65 404.68-3.35 405.43-3.35ZM431.93 0.3L431.93 0.3Q431.28 0.3 430.56-0.3 429.83-0.9 429.58-2.3L429.58-2.3 428.93-5.65Q428.63-7.35 428.36-9.33 428.08-11.3 427.88-13.25 427.68-15.2 427.56-16.8 427.43-18.4 427.36-19.35 427.28-20.3 427.28-20.3L427.28-20.3 426.63-22.75Q426.58-23.2 426.86-23.8 427.13-24.4 427.58-24.4L427.58-24.4 429.83-24.4 431.73-13.65Q431.98-12.45 432.18-10.98 432.38-9.5 432.56-8.18 432.73-6.85 432.83-6 432.93-5.15 432.93-5.15L432.93-5.15 433.23-5.15Q433.38-6.75 433.56-8.85 433.73-10.95 434.01-13.15 434.28-15.35 434.58-17.25L434.58-17.25 435.68-24.05Q435.78-24.5 436.01-24.7 436.23-24.9 437.16-24.95 438.08-25 440.13-25L440.13-25Q440.13-25 439.86-23.65 439.58-22.3 439.13-20.05 438.68-17.8 438.16-15.13 437.63-12.45 437.08-9.78 436.53-7.1 436.06-4.85 435.58-2.6 435.26-1.25 434.93 0.1 434.88 0.1L434.88 0.1Q434.88 0.1 434.16 0.2 433.43 0.3 431.93 0.3ZM421.13 0.3L421.13 0.3Q420.38 0.3 419.93-0.43 419.48-1.15 419.23-2.15L419.23-2.15Q418.88-3.7 418.41-5.88 417.93-8.05 417.41-10.53 416.88-13 416.36-15.4 415.83-17.8 415.43-19.75 415.03-21.7 414.78-22.9 414.53-24.1 414.53-24.1L414.53-24.1Q414.48-24.55 414.76-24.73 415.03-24.9 416.11-24.95 417.18-25 419.58-25L419.58-25 420.88-17.25Q421.23-15.25 421.51-13.13 421.78-11 421.98-9.2 422.18-7.4 422.31-6.28 422.43-5.15 422.43-5.15L422.43-5.15 422.73-5.15Q422.83-6 422.98-7.45 423.13-8.9 423.38-10.58 423.63-12.25 423.83-13.7L423.83-13.7 425.33-23.4Q425.43-24 425.68-24.2 425.93-24.4 426.83-24.4L426.83-24.4 428.03-24.4Q428.63-24.4 428.53-24.1 428.43-23.8 428.18-23.43 427.93-23.05 427.88-22.75L427.88-22.75 427.78-20.4Q427.78-20.4 427.71-19.43 427.63-18.45 427.51-16.82 427.38-15.2 427.16-13.25 426.93-11.3 426.68-9.33 426.43-7.35 426.08-5.6L426.08-5.6 425.03 0.1Q425.03 0.1 424.38 0.15 423.73 0.2 422.81 0.25 421.88 0.3 421.13 0.3Z" opacity="1" transform="matrix(1,0,0,1,0,0)" fill="#ffffff" class="slogan-text-1" data-fill-palette-color="secondary" id="text-1"></path></svg></g></svg></g></svg></g></svg></g><g transform="matrix(1,0,0,1,0,23.86458727268922)"><svg viewBox="0 0 75.52929024 65.557063638" height="65.557063638" width="75.52929024"><g><svg xmlns="http://www.w3.org/2000/svg" xmlns:xlink="http://www.w3.org/1999/xlink" version="1.1" x="0" y="0" viewBox="0 8.5 128 111.10000000000001" style="enable-background:new 0 0 128 128;" xml:space="preserve" height="65.557063638" width="75.52929024" class="icon-icon-0" data-fill-palette-color="accent" id="icon-0"><path d="M80 8.5L64 35.6 48 8.5 0 89.9c15.4 18.1 38.3 29.7 64 29.7 25.7 0 48.6-11.5 64-29.7L80 8.5zM17.5 88.4l31.1-52.8 7.7 13.1-28 47.5C24.4 94 20.8 91.4 17.5 88.4zM64 106c-8.3 0-16.2-1.4-23.6-4.1L64 61.8l23.6 40.1C80.2 104.6 72.3 106 64 106zM99.7 96.3l-28-47.5 7.7-13.1 31.1 52.8C107.2 91.4 103.6 94 99.7 96.3z" fill="#ffffff" data-fill-palette-color="accent"></path></svg></g></svg></g></svg></g></svg></g></svg></g><path d="M217.819 76.474L217.819 16.192 3.003 16.192 3.003 231.008 217.819 231.008 217.819 170.726 213.188 170.726 213.188 226.377 7.634 226.377 7.634 20.823 213.188 20.823 213.188 76.474Z" fill="#ffffff" stroke="transparent" data-fill-palette-color="primary"></path></svg></g><defs></defs></svg><rect width="395.52" height="247.2" fill="none" stroke="none" visibility="hidden"></rect></g></svg></g></svg>